<mxfile host="app.diagrams.net" modified="2023-05-02T11:47:37.603Z" agent="Mozilla/5.0 (Macintosh; Intel Mac OS X 10_15_7) AppleWebKit/537.36 (KHTML, like Gecko) Chrome/112.0.0.0 Safari/537.36" version="21.2.3" etag="TUL7u2hJ4ljtbEiX6rUI" type="github">
  <diagram name="Page-1" id="73ijLkoIqAOXk-ff7HrR">
    <mxGraphModel>
      <root>
        <mxCell id="0" />
        <mxCell id="1" parent="0" />
      </root>
    </mxGraphModel>
  </diagram>
</mxfile>
